<svg xmlns="http://www.w3.org/2000/svg" xmlns:xlink="http://www.w3.org/1999/xlink" version="1.1" width="256" height="256" viewBox="0 0 256 256" xml:space="preserve">

<defs>
</defs>
<g style="stroke: none; stroke-width: 0; stroke-dasharray: none; stroke-linecap: butt; stroke-linejoin: miter; stroke-miterlimit: 10; fill: none; fill-rule: nonzero; opacity: 1;" transform="translate(1.4065934065934016 1.4065934065934016) scale(2.81 2.81)" >
	<path d="M 12.068 23.122 c -4.198 0 -7.614 -3.415 -7.614 -7.614 c 0 -1.838 0.664 -3.613 1.87 -4.998 c 0.029 -0.034 0.06 -0.066 0.09 -0.099 l 0.02 -0.021 c 0.006 -0.008 0.012 -0.015 0.019 -0.023 c 2.456 -2.682 4.179 -5.658 5.267 -9.099 c 0.048 -0.152 0.189 -0.254 0.348 -0.254 c 0.159 0 0.299 0.103 0.347 0.254 c 1.088 3.441 2.811 6.417 5.267 9.099 c 0.017 0.018 0.031 0.038 0.044 0.059 c 1.261 1.403 1.955 3.204 1.955 5.081 C 19.682 19.707 16.266 23.122 12.068 23.122 z" style="stroke: none; stroke-width: 1; stroke-dasharray: none; stroke-linecap: butt; stroke-linejoin: miter; stroke-miterlimit: 10; fill: rgb(255,255,255); fill-rule: nonzero; opacity: 1;" transform=" matrix(3.89 0 0 3.89 -1.9444444444444287 -1.9444444444444287) " stroke-linecap="round" />
	<path d="M 12.068 23.636 c -4.482 0 -8.128 -3.646 -8.128 -8.128 c 0 -1.962 0.709 -3.857 1.997 -5.336 c 0.034 -0.039 0.068 -0.076 0.102 -0.112 l 0.008 -0.009 c 0.008 -0.009 0.015 -0.019 0.023 -0.027 c 2.408 -2.63 4.095 -5.543 5.16 -8.911 C 11.346 0.747 11.683 0.5 12.068 0.5 c 0.385 0 0.722 0.247 0.838 0.613 c 1.065 3.368 2.752 6.282 5.156 8.907 c 0.026 0.028 0.051 0.059 0.074 0.093 c 1.329 1.493 2.06 3.407 2.06 5.395 C 20.196 19.99 16.55 23.636 12.068 23.636 z M 12.068 1.861 c -1.117 3.329 -2.833 6.23 -5.236 8.853 L 6.79 10.763 c -0.026 0.028 -0.053 0.057 -0.079 0.086 c -1.123 1.29 -1.743 2.945 -1.743 4.659 c 0 3.915 3.185 7.1 7.1 7.1 s 7.1 -3.185 7.1 -7.1 c 0 -1.747 -0.647 -3.43 -1.823 -4.738 l -0.051 -0.067 C 14.895 8.082 13.183 5.185 12.068 1.861 z M 17.304 10.715 c 0 0.001 0.001 0.001 0.001 0.001 C 17.305 10.716 17.305 10.716 17.304 10.715 z" style="stroke: none; stroke-width: 1; stroke-dasharray: none; stroke-linecap: butt; stroke-linejoin: miter; stroke-miterlimit: 10; fill: rgb(0,0,0); fill-rule: nonzero; opacity: 1;" transform=" matrix(3.89 0 0 3.89 -1.9444444444444287 -1.9444444444444287) " stroke-linecap="round" />
	<path d="M 45 2 c -0.618 0 -1.166 0.4 -1.352 0.99 c -4.233 13.385 -10.935 24.963 -20.49 35.396 c -0.026 0.029 -0.05 0.058 -0.074 0.088 l -0.077 0.083 c -0.118 0.126 -0.235 0.252 -0.35 0.383 c -4.691 5.387 -7.275 12.292 -7.275 19.443 C 15.383 74.714 28.67 88 45 88 V 2 z" style="stroke: none; stroke-width: 1; stroke-dasharray: none; stroke-linecap: butt; stroke-linejoin: miter; stroke-miterlimit: 10; fill: rgb(0,0,0); fill-rule: nonzero; opacity: 1;" transform=" matrix(1 0 0 1 0 0) " stroke-linecap="round" />
</g>
</svg>